<?xml version="1.0" encoding="utf-8"?>
<!-- Svg Vector Icons : http://www.onlinewebfonts.com/icon -->
<!DOCTYPE svg PUBLIC "-//W3C//DTD SVG 1.1//EN" "http://www.w3.org/Graphics/SVG/1.1/DTD/svg11.dtd">
<svg version="1.1" xmlns="http://www.w3.org/2000/svg" xmlns:xlink="http://www.w3.org/1999/xlink" x="0px" y="0px" viewBox="0 0 1000 1000" enable-background="new 0 0 1000 1000" xml:space="preserve">
<metadata> Svg Vector Icons : http://www.onlinewebfonts.com/icon </metadata>
<g><g><path d="M816.5,127.4C932.2,226.1,990,350.3,990,500c0,136.1-47.6,251.8-142.9,347.1S636.1,990,500,990s-251.8-47.6-347.1-142.9C57.6,751.8,10,636.1,10,500c0-149.7,57.8-273.9,173.5-372.6l76.6,76.6c-93.6,76.6-140.4,175.2-140.4,296c0,105.5,37,195.2,111,269.2c74,74,163.8,111,269.2,111s195.2-37,269.2-111c74-74,111-163.8,111-269.2c0-120.8-46.8-218.6-140.4-293.5L816.5,127.4z M553.6,10v543.6H446.4V10H553.6z"/></g></g>
</svg>