<?xml version="1.0" encoding="utf-8"?>
<!-- Svg Vector Icons : http://www.onlinewebfonts.com/icon -->
<!DOCTYPE svg PUBLIC "-//W3C//DTD SVG 1.1//EN" "http://www.w3.org/Graphics/SVG/1.1/DTD/svg11.dtd">
<svg version="1.1" xmlns="http://www.w3.org/2000/svg" xmlns:xlink="http://www.w3.org/1999/xlink" x="0px" y="0px" viewBox="0 0 256 256" enable-background="new 0 0 256 256" xml:space="preserve">
<metadata> Svg Vector Icons : http://www.onlinewebfonts.com/icon </metadata>
<g><g><g><path fill="#000000" d="M49.1,55.8c-5.6,1.2-9.9,4.6-12.4,9.6c-0.9,1.8-1.2,3.3-1.3,7.9c-0.2,4.6-0.4,5.9-1.1,6.8c-0.7,0.9-0.9,2-0.9,4.7c0,3.9,1.3,7.2,4,10.7c0.8,1,1.8,2.8,2.2,4c2.4,7.1,10.9,12.7,17.2,11.2c3.7-0.8,5.6-1.9,5.9-3.4c1.1-5.1,4.5-10.5,8.8-13.9c2.5-2,3.2-2.8,3.7-4.6c0.8-2.8,0.4-8.1-0.5-8.8c-0.5-0.4-0.7-1.2-0.5-2.8c0.2-3.1-1.1-9.2-2.5-11c-0.6-0.8-1.3-2.2-1.5-3c-0.9-3.5-4.3-6-10.2-7.4C56.2,55,52.9,54.9,49.1,55.8z"/><path fill="#000000" d="M196.3,55.6c-3.3,0.7-8.1,3.2-9.9,5.3c-3.1,3.5-4.1,6.6-4.3,12.9c-0.1,4.4-0.4,5.8-1,6.2c-1,0.7-1.4,6-0.6,8.8c0.5,1.8,1.1,2.6,3.1,3.9c2.9,2.1,5.6,6.1,7.8,11.6c1.4,3.4,1.9,4.1,3.4,4.9c3.3,1.7,6.2,2.1,9.4,1.3c5.6-1.4,9.8-5.4,12.1-11.2c0.5-1.2,1.5-3,2.3-3.9c2.6-3.4,3.8-6.7,3.8-10.5c0-2.1-0.2-3.8-0.7-4.4c-0.3-0.5-0.8-2.9-0.9-5.2c-0.4-5.1-1-7.4-2.5-9.2c-0.6-0.7-1.4-2.3-1.7-3.4c-0.8-2.7-3.2-4.7-7.4-6.1C205.5,55.3,199.6,54.9,196.3,55.6z"/><path fill="#000000" d="M81.6,95.2c-5.7,1.5-10.3,5.7-12,10.8c-0.4,1.4-0.9,4.8-1.1,7.7c-0.1,3.2-0.5,5.5-0.9,5.9c-2.2,2.5-0.9,9.5,2.5,14.2c1.1,1.5,2.4,3.8,2.9,5c1.2,3.1,4.1,6.8,6.9,8.7c6,4,12.7,3.3,18.3-1.9c1.8-1.7,2.2-2.3,2.2-3.8c0-1,0.4-3.6,1-5.7c0.5-2.1,1.1-5.7,1.1-7.8c0.2-4.5,1.1-7.7,3.3-11.4c1.4-2.2,1.5-2.7,1.2-5.3c-0.1-1.6-0.8-3.8-1.4-4.9c-0.6-1.1-1.3-2.5-1.6-3.1c-0.2-0.5-0.9-1.9-1.5-3C100.1,95.8,89.5,93,81.6,95.2z"/><path fill="#000000" d="M160.8,95.4c-7.5,2.5-11.5,7.8-12.1,16.3c-0.2,3.4-0.1,3.9,1.2,6.6c2,4,3.5,9.2,3.5,12.1c0,1.3,0.4,3.8,1,5.5c0.5,1.7,1,4.1,1,5.4c0,2.1,0.2,2.5,2.2,4.3c4.1,3.8,9.3,5.3,13.9,4.1c4.5-1.2,9.5-6,11.3-10.9c0.4-1.2,1.7-3.3,2.8-4.8c2-2.7,3.8-7.5,3.8-10.2c0-1.9-0.9-4.7-1.5-4.7c-0.2,0-0.4-2.2-0.6-4.8c-0.2-4.7-0.6-6-3.1-10.4c-0.3-0.7-1.1-2.1-1.6-3.1c-1.8-3.7-6.6-5.9-14.2-6.1C164.7,94.5,163,94.7,160.8,95.4z"/><path fill="#000000" d="M30.9,108.5c-8.2,3.5-10.5,4.9-13.2,7.7c-3.9,4.1-7.3,12.5-7.6,18.7L10,138l1.7,0.9c2.5,1.2,11.5,3.3,17.9,4.1c3.1,0.4,10.1,0.9,15.8,1.2c8.5,0.3,10.5,0.3,11.6-0.2c0.7-0.4,3.1-1.4,5.2-2.2c2.2-0.9,4-1.6,4-1.7c0.1-0.1-0.7-1.7-1.8-3.5c-4.1-7-4.9-11.7-3.1-18.1c1.2-3.9,1.4-6.8,0.4-6.4c-3.1,1.2-6.3,1.9-8.6,1.6c-3.8-0.4-8.4-2.7-11.3-5.7c-1.4-1.4-2.8-2.5-3.1-2.5C38.4,105.4,34.9,106.7,30.9,108.5z"/><path fill="#000000" d="M215.1,106.7c-2.5,3.5-9.3,6.9-13.8,6.9c-1.7,0-4.7-0.7-7.1-1.7c-0.8-0.3-0.8-0.1-0.5,2.5c0.2,1.6,0.6,3.7,1,4.8c1.6,4.7,0.4,10.8-3.3,17.1c-2,3.2-2.1,4.3-0.7,4.3c0.3,0,2.8,0.9,5.5,2l4.8,1.9l9.7-0.4c10.5-0.5,16.1-1.1,22.3-2.3c5.3-1,11.9-3.1,12.6-4c0.5-0.5,0.5-1.6,0-4.6c-1.5-9.7-5.9-17.3-12.1-20.9c-2.5-1.5-15.9-7.1-16.8-7.1C216.4,105.3,215.6,105.9,215.1,106.7z"/><path fill="#000000" d="M124.7,111.8c-7.9,1-13.3,5.2-15.3,12c-0.4,1.4-0.7,4.4-0.7,7.1c0,3.9-0.1,4.8-1,5.9c-0.7,0.9-1,2-1,4.3c0,3.7,1.1,6.9,3.4,10c1,1.3,2.3,3.6,2.9,5.2c1.5,3.6,5,7.6,8.5,9.5c2.2,1.2,3.1,1.4,6.3,1.4c3.1,0.1,4.1-0.2,6.2-1.3c3.3-1.7,7.1-6,8.6-9.6c0.6-1.6,1.9-3.9,2.9-5.2c1-1.3,2.2-3.3,2.6-4.7c1.1-3.1,1.1-7.9,0-9.5c-0.5-0.7-0.8-1.9-0.7-3.4c0.1-3.4-1.2-9.3-2.7-11.2c-0.7-0.9-1.2-1.9-1.2-2.2c0-1.2-2.1-4.2-3.7-5.4C136.5,112.3,130,111.1,124.7,111.8z"/><path fill="#000000" d="M67.6,146.2c-13.3,5.4-16.8,7.9-20.4,14.7c-2.1,4-4,10.7-4,14.2c0,2,0,2.1,2.4,3.1c4.8,2.1,16.3,4.1,29.2,5.1l3.7,0.3l0.6-2.1c2.2-7.3,7-13.8,13.2-17.7c3.6-2.3,9.2-5,12.4-5.9c1.1-0.3,2-0.7,2-0.7c0-0.1-0.9-1.5-1.9-3.1c-1.1-1.7-2.3-4-2.8-5.2l-0.8-2.2l-2.1,1.6c-3.5,2.9-6.1,3.9-10.4,4.1c-5.5,0.3-8.6-0.9-13-5.1l-3.3-3.1L67.6,146.2z"/><path fill="#000000" d="M180.7,146.8c-7.1,7.3-16.2,7.9-24.1,1.5l-2.1-1.6l-0.8,2.1c-0.4,1.1-1.6,3.5-2.7,5.3l-1.9,3.1l4.9,1.8c6.2,2.4,10,4.7,14.2,8.6c3.8,3.5,6.5,8,8,12.6l1,3.3l3.8-0.3c12.4-0.9,24.7-3,29.4-5.1c2.1-0.9,2.2-1,2.2-3.1c0-1.2-0.4-3.9-1-6.2c-1.9-8.1-6.5-14.7-12.2-17.8c-2.2-1.1-15.6-7-16-7C183.4,144.2,182.2,145.4,180.7,146.8z"/><path fill="#000000" d="M105.3,164.3c-9.3,3.9-10.6,4.7-13.8,7.9c-4.4,4.4-7.6,12.1-7.9,19l-0.1,3l2.2,1c6.5,3.2,25.2,5.6,42.3,5.6c17.2,0,35.8-2.5,42.3-5.6l2.2-1l-0.1-3c-0.3-6.9-3.5-14.6-8-19c-3-3.1-6.3-4.8-15.3-8.5l-5.7-2.4l-2.8,2.8c-4,4-7.3,5.4-12.7,5.4c-5.3,0-8.6-1.4-12.6-5.4c-1.5-1.5-2.9-2.7-3.1-2.7C112.1,161.5,108.9,162.8,105.3,164.3z"/></g></g></g>
</svg>