<?xml version="1.0" standalone="no"?>
<!DOCTYPE svg PUBLIC "-//W3C//DTD SVG 20010904//EN"
 "http://www.w3.org/TR/2001/REC-SVG-20010904/DTD/svg10.dtd">
<svg version="1.0" xmlns="http://www.w3.org/2000/svg"
 width="736.000000pt" height="980.000000pt" viewBox="0 0 736.000000 980.000000"
 preserveAspectRatio="xMidYMid meet">

<g transform="translate(0.000000,980.000000) scale(0.100000,-0.100000)"
fill="#000000" stroke="none">
<path d="M3397 9785 c-139 -27 -285 -87 -390 -161 -188 -135 -487 -418 -641
-609 -762 -947 -871 -2136 -321 -3500 40 -99 85 -205 99 -236 l26 -57 98 39
c126 50 136 50 128 2 -32 -192 -32 -399 -1 -563 55 -286 190 -546 385 -740
110 -110 211 -182 342 -245 365 -175 777 -146 1124 79 110 72 288 249 362 361
102 154 176 332 218 525 15 69 19 126 19 300 -1 122 -6 233 -12 258 -13 52
-10 52 85 13 l70 -29 56 126 c352 806 482 1573 381 2246 -113 752 -517 1425
-1168 1945 -186 148 -276 196 -439 237 -92 22 -325 27 -421 9z m428 -195 c92
-29 188 -80 248 -131 l47 -41 -2 -1701 -3 -1702 -535 0 -535 0 0 1710 0 1710
69 47 c81 56 184 100 281 122 105 23 337 16 430 -14z"/>
<path d="M4936 4294 c-254 -734 -958 -1149 -1644 -969 -399 105 -728 380 -921
770 -33 66 -70 153 -82 193 -13 39 -27 72 -32 72 -22 0 -234 -90 -342 -145
-962 -492 -1572 -1458 -1815 -2875 -61 -361 -105 -804 -89 -916 27 -200 199
-376 403 -413 42 -8 1024 -11 3275 -11 3547 0 3278 -5 3405 63 86 45 166 129
210 218 51 105 58 172 40 383 -147 1744 -757 2922 -1819 3509 -150 83 -493
227 -539 227 -8 0 -29 -44 -50 -106z m-956 -1854 l0 -240 210 0 210 0 0 -275
0 -275 -210 0 -210 0 -2 -517 -3 -518 -427 -3 -428 -2 -2 517 -3 518 -212 3
-213 2 0 275 0 275 213 2 212 3 3 238 2 237 430 0 430 0 0 -240z"/>
</g>
</svg>
