<?xml version="1.0" standalone="no"?>
<!DOCTYPE svg PUBLIC "-//W3C//DTD SVG 20010904//EN"
 "http://www.w3.org/TR/2001/REC-SVG-20010904/DTD/svg10.dtd">
<svg version="1.0" xmlns="http://www.w3.org/2000/svg"
 width="1024.000000pt" height="1024.000000pt" viewBox="0 0 1024.000000 1024.000000"
 preserveAspectRatio="xMidYMid meet">

<g transform="translate(0.000000,1024.000000) scale(0.100000,-0.100000)"
fill="#000000" stroke="none">
<path d="M4920 9880 l0 -360 -395 0 -395 0 2 -187 3 -188 393 -3 392 -2 0
-428 0 -427 98 -98 99 -99 91 98 92 98 0 428 0 428 395 0 395 0 0 190 0 190
-395 0 -395 0 0 360 0 360 -190 0 -190 0 0 -360z"/>
<path d="M3915 6754 c-683 -692 -1200 -1223 -1212 -1246 -39 -71 -26 -177 30
-236 53 -58 157 -79 230 -49 20 9 440 425 1087 1078 580 585 1057 1065 1060
1067 3 1 477 -475 1055 -1059 633 -640 1064 -1068 1087 -1080 41 -21 120 -25
165 -8 50 18 103 79 119 137 13 44 14 61 3 104 -11 48 -26 66 -229 274 -443
454 -2194 2224 -2199 2224 -4 -1 -541 -543 -1196 -1206z"/>
<path d="M4965 6894 c-77 -79 -486 -493 -910 -920 l-770 -777 -5 -620 -5 -620
-1435 -588 c-789 -323 -1451 -596 -1470 -607 -110 -61 -103 -201 11 -232 50
-14 91 -3 289 79 l145 60 3 -1335 2 -1334 1650 0 1650 0 0 745 c0 642 2 757
16 823 84 408 388 710 799 793 86 17 284 14 380 -6 423 -89 740 -447 785 -886
6 -59 10 -383 10 -785 l0 -684 1648 0 1649 0 6 482 c4 265 7 866 7 1336 0 679
3 853 13 849 6 -3 86 -36 176 -72 152 -62 168 -67 224 -63 52 4 64 9 88 36 48
54 32 144 -33 186 -13 9 -676 283 -1473 610 l-1450 595 -5 610 -5 610 -920
930 c-506 512 -922 931 -925 930 -3 0 -68 -65 -145 -145z m320 -1895 c183 -57
340 -222 390 -409 12 -44 15 -146 15 -522 l0 -468 -580 0 -580 0 0 463 c0 515
1 524 67 650 132 250 419 370 688 286z m-2892 -2314 c162 -42 300 -157 374
-310 59 -125 63 -161 63 -652 l0 -443 -586 0 -585 0 3 478 c3 471 3 478 26
542 67 186 207 322 392 381 70 23 233 25 313 4z m5682 0 c158 -42 304 -164
375 -317 56 -120 60 -159 60 -645 l0 -443 -585 0 -586 0 3 478 3 477 27 75
c66 181 202 311 388 371 71 23 233 25 315 4z"/>
</g>
</svg>
