<?xml version="1.0" standalone="no"?>
<!DOCTYPE svg PUBLIC "-//W3C//DTD SVG 20010904//EN"
 "http://www.w3.org/TR/2001/REC-SVG-20010904/DTD/svg10.dtd">
<svg version="1.0" xmlns="http://www.w3.org/2000/svg"
 width="64.000000pt" height="64.000000pt" viewBox="0 0 64.000000 64.000000"
 preserveAspectRatio="xMidYMid meet">

<g transform="translate(0.000000,64.000000) scale(0.100000,-0.100000)"
fill="#000000" stroke="none">
<path d="M120 565 c-6 -16 -16 -49 -23 -72 -8 -33 -14 -40 -24 -31 -11 8 -13
-29 -13 -206 l0 -216 105 0 105 0 0 64 c0 68 14 96 50 96 36 0 50 -28 50 -96
l0 -64 105 0 105 0 0 210 c0 182 -2 209 -15 204 -11 -4 -15 1 -16 17 0 13 -9
47 -19 74 l-18 50 -12 -30 c-6 -16 -16 -49 -23 -72 -8 -33 -14 -40 -24 -31
-10 8 -13 -5 -13 -71 l0 -82 -55 42 c-44 33 -55 47 -55 69 0 16 6 30 12 32 9
3 8 9 -5 22 -16 17 -18 17 -34 0 -13 -13 -14 -19 -5 -22 6 -2 12 -16 12 -31 0
-22 -12 -37 -52 -69 l-53 -41 -3 74 c-2 60 -6 73 -17 68 -11 -3 -15 2 -16 18
0 13 -9 47 -19 74 l-18 50 -12 -30z m0 -232 c0 -23 -5 -33 -15 -33 -16 0 -21
43 -9 75 10 24 24 -1 24 -42z m50 0 c0 -23 -5 -33 -15 -33 -16 0 -21 43 -9 75
10 24 24 -1 24 -42z m330 0 c0 -23 -5 -33 -15 -33 -16 0 -21 43 -9 75 10 24
24 -1 24 -42z m50 0 c0 -23 -5 -33 -15 -33 -16 0 -21 43 -9 75 10 24 24 -1 24
-42z m-205 -53 c0 -18 -6 -26 -23 -28 -24 -4 -38 18 -28 44 3 9 15 14 28 12
17 -2 23 -10 23 -28z m-105 -136 c0 -24 -5 -34 -15 -34 -10 0 -15 10 -15 33 0
19 3 37 6 40 13 13 24 -5 24 -39z m190 0 c0 -24 -5 -34 -15 -34 -10 0 -15 10
-15 33 0 19 3 37 6 40 13 13 24 -5 24 -39z"/>
</g>
</svg>
