<?xml version="1.0" standalone="no"?>
<!DOCTYPE svg PUBLIC "-//W3C//DTD SVG 20010904//EN"
 "http://www.w3.org/TR/2001/REC-SVG-20010904/DTD/svg10.dtd">
<svg version="1.0" xmlns="http://www.w3.org/2000/svg"
 width="512.000000pt" height="512.000000pt" viewBox="0 0 512.000000 512.000000"
 preserveAspectRatio="xMidYMid meet">

<g transform="translate(0.000000,512.000000) scale(0.100000,-0.100000)"
fill="#000000" stroke="none">
<path d="M2395 5106 c-367 -71 -660 -341 -757 -696 -22 -81 -23 -102 -23 -405
0 -274 3 -329 18 -383 57 -210 167 -384 318 -508 202 -165 460 -244 708 -216
392 45 700 304 817 688 27 86 28 98 32 374 4 299 -2 378 -40 494 -53 166 -166
334 -300 446 -88 74 -261 162 -373 191 -103 27 -302 34 -400 15z"/>
<path d="M1842 2711 l-92 -46 0 -183 c0 -246 24 -360 112 -537 94 -189 206
-300 493 -492 l205 -136 208 138 c297 198 401 305 501 516 81 169 93 228 98
479 l5 215 -94 46 -93 46 -77 -36 -77 -36 -1 -308 c0 -342 -2 -356 -64 -400
-31 -22 -34 -22 -406 -22 l-375 0 -34 24 c-59 42 -61 57 -61 398 l0 308 -78
36 -78 36 -92 -46z"/>
<path d="M2390 2423 l0 -173 170 0 170 0 0 173 0 172 -170 0 -170 0 0 -172z"/>
<path d="M1385 2475 c-192 -116 -425 -331 -548 -505 -132 -189 -239 -428 -295
-660 -54 -222 -57 -267 -57 -757 0 -440 1 -452 21 -479 11 -15 33 -37 48 -48
l27 -21 1979 0 1979 0 27 21 c15 11 37 33 48 48 20 27 21 39 21 479 0 490 -3
536 -57 757 -56 234 -164 473 -296 660 -77 108 -225 266 -327 350 -66 54 -266
190 -279 190 -3 0 -6 -48 -6 -107 0 -268 -89 -545 -248 -767 -118 -166 -242
-272 -575 -491 l-137 -90 0 -47 0 -48 109 0 c96 0 112 -3 142 -23 67 -44 88
-135 47 -197 -44 -65 -68 -74 -188 -78 l-109 -4 -3 -188 c-3 -206 -6 -215 -72
-264 -38 -29 -114 -29 -152 0 -66 49 -69 58 -72 264 l-3 188 -109 4 c-120 4
-144 13 -187 78 -44 64 -21 157 49 200 28 17 51 20 141 20 l107 0 0 48 0 49
-207 138 c-221 147 -343 243 -416 328 -160 188 -263 393 -313 624 -9 43 -19
142 -23 221 l-6 143 -60 -36z"/>
</g>
</svg>
