<?xml version="1.0" standalone="no"?>
<!DOCTYPE svg PUBLIC "-//W3C//DTD SVG 20010904//EN"
 "http://www.w3.org/TR/2001/REC-SVG-20010904/DTD/svg10.dtd">
<svg version="1.0" xmlns="http://www.w3.org/2000/svg"
 width="980.000000pt" height="996.000000pt" viewBox="0 0 980.000000 996.000000"
 preserveAspectRatio="xMidYMid meet">

<g transform="translate(0.000000,996.000000) scale(0.100000,-0.100000)"
fill="#000000" stroke="none">
<path d="M4848 9952 c-46 -3 -53 -8 -195 -141 -243 -226 -1871 -1840 -3045
-3020 -1092 -1096 -1520 -1534 -1573 -1610 -20 -31 -29 -56 -32 -105 -7 -88
19 -141 135 -271 115 -129 353 -358 419 -402 70 -47 152 -56 215 -23 127 66
258 191 1898 1824 1385 1378 1944 1928 2082 2047 85 73 130 88 191 61 120 -54
290 -217 2092 -2012 1482 -1477 1734 -1723 1889 -1847 95 -75 131 -93 183 -93
96 0 142 30 347 230 180 174 295 305 324 369 21 46 24 63 19 119 -6 55 -12 72
-46 117 -87 115 -556 591 -2400 2436 -1848 1847 -2269 2262 -2334 2295 -36 19
-107 30 -169 26z"/>
<path d="M7040 9741 c-219 -7 -229 -10 -305 -86 -69 -68 -77 -107 -82 -395
l-5 -245 598 -595 c549 -546 835 -820 854 -820 19 0 21 119 21 879 -1 745 -8
1025 -27 1076 -15 42 -76 115 -120 144 -30 20 -63 32 -97 35 -86 9 -629 13
-837 7z"/>
<path d="M4847 7655 c-26 -7 -71 -31 -100 -53 -97 -75 -748 -715 -2255 -2218
l-1503 -1499 7 -1841 7 -1842 51 -63 c66 -82 111 -105 238 -118 150 -17 1917
-15 1923 1 2 7 8 895 14 1972 l10 1959 61 62 61 62 1516 6 1515 7 47 -34 c68
-51 101 -89 113 -132 8 -27 13 -632 17 -1979 l6 -1940 465 -3 c256 -1 704 2
995 6 506 8 532 9 576 29 69 31 126 88 165 165 l34 68 0 1808 0 1809 -1628
1624 c-1576 1573 -1936 1926 -2090 2050 -119 96 -168 115 -245 94z"/>
<path d="M4487 3586 c-55 -71 -52 3 -54 -1396 -2 -718 0 -1415 5 -1549 l7
-245 190 -48 c105 -26 465 -111 800 -188 336 -78 618 -144 628 -146 16 -5 17
83 17 1744 l0 1749 -22 33 c-13 18 -36 43 -51 54 -28 21 -36 21 -761 24 l-733
3 -26 -35z m290 -1182 c14 -22 18 -56 21 -180 5 -189 -2 -256 -32 -291 -18
-20 -28 -25 -49 -19 -37 9 -42 43 -42 282 0 220 3 234 56 234 20 0 34 -8 46
-26z"/>
</g>
</svg>
