<?xml version="1.0" standalone="no"?>
<!DOCTYPE svg PUBLIC "-//W3C//DTD SVG 20010904//EN"
 "http://www.w3.org/TR/2001/REC-SVG-20010904/DTD/svg10.dtd">
<svg version="1.0" xmlns="http://www.w3.org/2000/svg"
 width="512.000000pt" height="512.000000pt" viewBox="0 0 512.000000 512.000000"
 preserveAspectRatio="xMidYMid meet">

<g transform="translate(0.000000,512.000000) scale(0.100000,-0.100000)"
fill="#000000" stroke="none">
<path d="M2480 4915 l0 -175 -160 0 -160 0 0 -95 0 -95 160 0 160 0 -1 -227 0
-228 -489 -565 c-269 -311 -496 -580 -505 -598 -48 -98 68 -215 167 -168 19 9
55 42 81 72 l47 56 0 -394 0 -394 -462 -259 c-583 -326 -561 -312 -583 -369
-41 -107 32 -210 146 -209 37 1 69 13 155 59 60 33 112 61 116 62 4 2 8 -303
8 -677 l0 -681 380 0 380 0 0 473 -1 472 -22 -26 c-32 -38 -64 -52 -103 -45
-39 8 -64 39 -64 79 0 69 190 272 338 361 152 91 382 147 536 131 259 -27 440
-110 624 -289 155 -150 182 -209 121 -260 -17 -14 -39 -26 -50 -26 -26 0 -69
23 -93 49 -11 12 -23 21 -28 21 -4 0 -8 -211 -8 -470 l0 -470 400 0 400 0 0
681 c0 374 3 679 8 677 4 -2 56 -30 116 -62 119 -65 164 -73 223 -43 75 39
103 138 61 212 -22 37 -65 64 -531 325 l-507 284 0 404 0 404 57 -66 c67 -78
108 -97 172 -77 71 21 107 98 80 166 -8 18 -233 289 -501 601 l-488 566 0 224
0 224 160 0 160 0 0 95 0 95 -160 0 -160 0 0 175 0 175 -90 0 -90 0 0 -175z
m152 -1716 c116 -25 212 -100 264 -205 37 -75 44 -187 18 -269 -79 -253 -400
-343 -595 -168 -97 88 -135 179 -126 303 11 165 121 296 282 336 65 16 92 16
157 3z"/>
<path d="M2455 1293 c-135 -22 -185 -42 -301 -118 l-84 -55 0 -545 0 -545 210
0 210 0 0 629 c0 347 -3 632 -7 634 -5 2 -17 2 -28 0z"/>
<path d="M2590 664 l0 -634 205 0 205 0 0 544 0 545 -62 44 c-106 75 -202 115
-310 130 l-38 6 0 -635z"/>
</g>
</svg>
