<?xml version="1.0" encoding="utf-8"?>
<!-- Svg Vector Icons : http://www.onlinewebfonts.com/icon -->
<!DOCTYPE svg PUBLIC "-//W3C//DTD SVG 1.1//EN" "http://www.w3.org/Graphics/SVG/1.1/DTD/svg11.dtd">
<svg version="1.1" xmlns="http://www.w3.org/2000/svg" xmlns:xlink="http://www.w3.org/1999/xlink" x="0px" y="0px" viewBox="0 0 256 256" enable-background="new 0 0 256 256" xml:space="preserve">
<metadata> Svg Vector Icons : http://www.onlinewebfonts.com/icon </metadata>
<g><g><g><path fill="#000000" d="M126,11.1c-1.1,1.1-1.2,1.3-1.2,7.1v6h-5.3c-4.7,0-5.4,0.1-6.2,0.9c-1.3,1.3-1.2,3.4,0.3,4.6c1.1,0.8,1.9,1,6.2,1h5v10.2V51l1.3-0.9c1.6-1.2,2.3-1.2,3.5-0.3c0.5,0.4,1.1,0.7,1.3,0.7c0.2,0,0.4-4.5,0.4-9.9v-9.9h5c4.3,0,5.2-0.1,6.2-1c1.5-1.2,1.6-3.2,0.3-4.6c-0.8-0.8-1.5-0.9-6.2-0.9h-5.3v-6c0-5.8,0-6.1-1.2-7.1C128.7,9.6,127.4,9.6,126,11.1z"/><path fill="#000000" d="M116.8,60.6c-7.8,4.7-10.8,6.7-11.4,7.7c-0.7,1.3-0.8,2.4-0.7,10.7l0.1,9.3l9.7-9.7c10.3-10.3,12-11.5,14.9-10.7c1,0.2,4.7,3.5,11.8,10.4l10.4,10.1V79c0-8.3-0.1-9.5-0.9-10.8c-0.6-1-3.9-3.2-11.5-7.7c-5.9-3.5-10.9-6.3-11.2-6.3C127.6,54.3,122.6,57.1,116.8,60.6z"/><path fill="#000000" d="M84.5,116.8c-32.6,32.7-42.6,42.8-43.4,44.6c-2.2,4.3-1.3,9.3,2.1,12.8c1.5,1.6,2.7,2.3,4.6,2.9c3.1,0.9,3.9,0.9,7,0c2.4-0.7,3.5-1.8,37.9-36.1l35.4-35.4l35.4,35.4c34.3,34.3,35.5,35.4,37.9,36.1c3.1,0.9,3.9,0.9,6.9,0c6.5-1.9,9.8-9.6,6.8-15.7c-1.7-3.3-85.2-86.9-86.9-86.9C127.1,74.5,117.9,83.5,84.5,116.8z"/><path fill="#000000" d="M93.5,148.9l-34.2,34.3l0.1,30.8c0.1,29.9,0.2,30.8,1,31.4c0.7,0.6,4.3,0.6,20.4,0.6h19.5l0.1-21.3l0.1-21.3l1.2-3.5c3.2-8.7,10.5-15.5,19.1-17.8c3.6-1,10.3-1,14,0c8.8,2.3,16.1,9,19.2,17.8l1.2,3.5l0.2,21.3l0.1,21.3h19.5c16.1,0,19.6-0.1,20.4-0.6c0.8-0.6,0.9-1.6,1-31.4l0.1-30.8l-34.2-34.3c-18.9-18.9-34.3-34.3-34.5-34.3C127.9,114.6,112.4,130,93.5,148.9z M84.1,184c2.2,0.9,3.6,2.3,4.8,4.6c0.8,1.6,1,2.8,1.2,8.3c0.2,8.3-0.3,10.7-2.8,13.4c-3.5,3.8-9.1,4.3-13,1c-3.3-2.7-3.6-3.9-3.4-13.5l0.1-8.4l1.4-2C75.1,183.7,80,182.3,84.1,184z M181.1,184.9c1.1,0.8,2.4,2.3,3,3.4c1,1.9,1.1,2.5,1.1,10c0,7.1-0.1,8.2-0.9,9.8c-1.2,2.4-3.8,4.5-6.5,5.1c-4.7,1.2-9.8-1.9-11.3-6.7c-0.8-2.7-0.9-13.1-0.1-16.1c0.6-2.6,2.8-5.2,5.2-6.4C174.4,182.8,178.6,183.2,181.1,184.9z"/></g></g></g>
</svg>